<svg width="472" height="944" viewBox="0 0 472 944" fill="none" xmlns="http://www.w3.org/2000/svg">
<g clip-path="url(#clip0_4139_522)">
<path d="M943.055 401.349L622.932 401.405L849.267 174.99L760.52 86.3367L471.55 375.47L182.417 86.4376L93.7636 175.122L320.178 401.458L0.0549855 401.513L0.0768747 526.929L320.2 526.873L93.8645 753.225L182.549 841.941L408.885 615.527L408.94 935.65L534.356 935.628L534.3 615.505L760.652 841.84L849.368 753.093L622.953 526.82L943.077 526.765L943.055 401.349Z" fill="white"/>
<path d="M471.541 266.749C506.156 266.743 534.244 238.396 534.238 203.475L534.214 64.1693C534.208 29.2481 506.11 0.911084 471.495 0.917125C436.88 0.923167 408.792 29.27 408.798 64.1912L408.822 203.497C408.829 238.418 436.927 266.755 471.541 266.749Z" fill="#004D99"/>
</g>
<defs>
<clipPath id="clip0_4139_522">
<rect y="1" width="943" height="943" rx="248.09" fill="white"/>
</clipPath>
</defs>
</svg>
