<svg width="860" height="533" viewBox="0 0 860 533" fill="none" xmlns="http://www.w3.org/2000/svg">
<g clip-path="url(#clip0_4139_583)">
<path d="M859.05 365.688L567.442 365.739L773.617 159.493L692.775 78.7364L429.546 342.115L166.168 78.8284L85.4114 159.613L291.658 365.787L0.0500876 365.838L0.0700269 480.082L291.678 480.031L85.5033 686.22L166.288 767.034L372.462 560.787L372.513 852.395L486.757 852.375L486.706 560.768L692.895 766.942L773.709 686.1L567.462 479.983L859.07 479.932L859.05 365.688Z" fill="white"/>
<path d="M429.537 243.077C461.069 243.071 486.655 217.249 486.649 185.439L486.627 58.5423C486.621 26.7318 461.026 0.918975 429.495 0.924479C397.964 0.929982 372.378 26.7517 372.383 58.5623L372.405 185.459C372.411 217.269 398.006 243.082 429.537 243.077Z" fill="#004D99"/>
</g>
<defs>
<clipPath id="clip0_4139_583">
<rect y="1" width="859" height="859" rx="225.991" fill="white"/>
</clipPath>
</defs>
</svg>
