<svg width="224" height="71" viewBox="0 0 224 71" fill="none" xmlns="http://www.w3.org/2000/svg">
<g clip-path="url(#clip0_4139_676)">
<path d="M223.881 71.0001H216.069L210.387 40.4701L216.069 12.7801H223.881L218.199 40.4701L223.881 71.0001Z" fill="white"/>
<path d="M199.025 71.0001H206.837L212.519 40.4701L206.837 12.7801H199.025L204.707 40.4701L199.025 71.0001Z" fill="white"/>
<path d="M104.57 71.0001L96.0476 71L91.7864 32.9646C91.265 28.9079 90.7803 22.7204 90.2589 17.446C90.3625 22.6194 90.366 28.4 90.366 32.9646V71H81.8438V6.10352e-05H96.0476L99.4229 33.6744C99.8391 37.4267 100.101 41.5859 100.309 45.5416C100.621 41.5859 100.78 37.4267 101.196 33.6744L104.57 6.10352e-05H118.774V71H110.251V32.9646C110.251 28.4 110.253 22.7204 110.358 17.6495C109.836 22.8229 109.351 29.0089 108.831 32.9646L104.57 71.0001Z" fill="white"/>
<path d="M187.662 6.10352e-05H196.184V8.52006H187.662V6.10352e-05Z" fill="white"/>
<path d="M187.662 71.0001H196.184V12.7801H187.662V71.0001Z" fill="white"/>
<path d="M174.878 70.9984H166.355V6.10352e-05H174.878V70.9984Z" fill="white"/>
<path d="M166.355 30.5301H182.69V39.0501H166.355V30.5301Z" fill="white"/>
<path d="M166.355 6.10352e-05H184.82V8.52006H166.355V6.10352e-05Z" fill="white"/>
<path d="M151.441 2.84006H159.964V61.1605C159.964 64.8118 160.269 68.1588 161.384 70.9994H152.354C151.441 69.2755 151.441 65.826 151.441 62.2772V2.84006Z" fill="white"/>
<path d="M148.602 12.7801H163.516V20.5901H148.602V12.7801Z" fill="white"/>
<path d="M137.238 50.403H145.761V61.4898C145.761 69.204 142.715 71.4355 135.615 71.4284H131.861C124.861 71.4355 122.324 69.1969 122.324 61.4898V22.7187C122.324 15.0116 124.861 12.7801 131.861 12.7801H135.615C142.715 12.7801 145.761 15.0116 145.761 22.7187V44.6231H130.847V60.4757C130.847 63.2135 131.252 64.1266 133.485 64.1266H134.499C136.731 64.1266 137.238 63.2135 137.238 60.4757V50.403ZM130.847 37.7266H137.238V23.7328C137.238 20.995 136.73 20.0819 134.498 20.0819H133.483C131.251 20.0819 130.847 20.995 130.847 23.7328V37.7266Z" fill="white"/>
</g>
<rect width="70.9999" height="70.9999" transform="translate(0.880859 6.10352e-05)" fill="#0076D6"/>
<g clip-path="url(#clip1_4139_676)">
<path d="M66.9115 30.9036H46.1833L60.8412 16.2456L55.0958 10.5043L36.3815 29.2226L17.6632 10.5043L11.9218 16.2456L26.5798 30.9036H5.85156V39.0244H26.5798L11.9218 53.6782L17.6632 59.4237L32.3212 44.7657V65.4939H40.4419V44.7657L55.0958 59.4237L60.8412 53.6782L46.1833 39.0244H66.9115V30.9036Z" fill="white"/>
<path d="M36.3807 22.1829C38.622 22.1829 40.4411 20.3477 40.4411 18.0865V9.0664C40.4411 6.80522 38.622 4.97006 36.3807 4.97006C34.1394 4.97006 32.3203 6.80522 32.3203 9.0664V18.0865C32.3203 20.3477 34.1394 22.1829 36.3807 22.1829Z" fill="white"/>
</g>
<defs>
<clipPath id="clip0_4139_676">
<rect width="142.038" height="71" fill="white" transform="translate(81.8438 6.10352e-05)"/>
</clipPath>
<clipPath id="clip1_4139_676">
<rect x="5.85156" y="4.97006" width="61.0599" height="61.0599" rx="16.064" fill="white"/>
</clipPath>
</defs>
</svg>
